trial_5_ID.mot
nRows=4
nColumns=42

name trial_5_ID.mot
datacolumns 42
datarows 4
range 7.2100000000 7.2400000000
endheader
time	pelvis_tilt_moment	pelvis_list_moment	pelvis_rotation_moment	pelvis_tx_force	pelvis_ty_force	pelvis_tz_force	hip_flexion_r_moment	hip_adduction_r_moment	hip_rotation_r_moment	knee_angle_r_moment	knee_vv_r_moment	knee_rot_r_moment	ankle_angle_r_moment	subtalar_angle_r_moment	mtp_angle_r_moment	hip_flexion_l_moment	hip_adduction_l_moment	hip_rotation_l_moment	knee_angle_l_moment	knee_vv_l_moment	knee_rot_l_moment	ankle_angle_l_moment	subtalar_angle_l_moment	mtp_angle_l_moment	lumbar_extension_moment	lumbar_bending_moment	lumbar_rotation_moment	arm_flex_r_moment	arm_add_r_moment	arm_rot_r_moment	elbow_flex_r_moment	pro_sup_r_moment	wrist_flex_r_moment	wrist_dev_r_moment	arm_flex_l_moment	arm_add_l_moment	arm_rot_l_moment	elbow_flex_l_moment	pro_sup_l_moment	wrist_flex_l_moment	wrist_dev_l_moment
        7.2100000000	       -9.4027095500	        4.8623689400	        2.2637051900	       -4.1452827100	       -6.7784442900	       19.5020577200	        7.6010174100	      -31.1331850100	        1.5105731800	      -13.0433019700	       -9.4104578200	       -0.2511986800	      -68.6670392900	       17.2690664400	        0.0262434900	       -8.8702289000	        6.1431497900	       -1.0300061600	       -5.3323902900	       -3.4400624300	        0.9876248500	        5.8123010600	       -0.8541573000	        0.0339847900	       14.4164079900	        2.7852867500	       -1.2425680100	       -1.0066531700	       -1.7864823500	        0.0766923200	       -0.1833536000	        0.0135316700	        0.0365508800	        0.0611682700	        0.2166172000	       -1.9517964300	       -0.0501026500	       -0.3603352700	       -0.0145578400	       -0.0538816000	        0.0022126100	
        7.2200000000	       -7.6573519100	        5.0302062900	        3.3412161600	       -4.7876917900	       -4.9857229300	       18.5355412300	        8.9008254700	      -29.2010627900	        1.8782242400	      -12.7380762300	       -8.4629766600	        0.2425062800	      -68.7163688600	       17.2630858900	        0.0249733200	       -9.6143377600	        4.7369284100	       -1.3317112600	       -4.1250263000	       -2.7827298900	        1.3116580200	        6.4883257100	       -0.9654156300	        0.0420600500	       16.2972486900	        3.3183787800	       -0.6577326600	       -0.8448458000	       -1.7286496200	        0.0657165800	       -0.0805999900	        0.0113035100	        0.0390286300	        0.0498967100	        0.1217930600	       -1.8656470700	       -0.0580915700	       -0.3547980900	       -0.0151170700	       -0.0495850800	        0.0022853200	
        7.2300000000	       -5.5067328900	        5.4550410000	        4.2768832300	       -6.0761468700	       -3.7865672700	       16.7155654700	       10.1983238600	      -26.8610124900	        2.2687766000	      -12.1786644700	       -7.3925127600	        0.7787041500	      -68.1339344100	       17.0978827600	        0.0230875800	      -10.6764005400	        2.7786395000	       -1.5803070700	       -2.7425134600	       -1.7997631800	        1.6334112300	        6.8379780500	       -0.9818090900	        0.0491792900	       18.6807123800	        3.8186832800	       -0.1649630900	       -0.7120551300	       -1.6759939300	        0.0571285900	        0.0143735100	        0.0095476400	        0.0414312700	        0.0389813900	        0.0415109400	       -1.7962666700	       -0.0684506000	       -0.3471984300	       -0.0162463200	       -0.0458527700	        0.0017776300	
        7.2400000000	       -3.1493694600	        6.3618171800	        4.8253670800	       -7.9881331900	       -3.0738275000	       13.9596676100	       11.3750779900	      -23.9393742500	        2.6527709700	      -11.3352576100	       -6.1511496700	        1.3437827300	      -66.8523721900	       16.7535516500	        0.0206875800	      -11.9141953800	        0.3786018100	       -1.7253057700	       -1.0982109300	       -0.5492907500	        1.9270676500	        6.8842940000	       -0.8961996800	        0.0547867400	       21.3265844700	        4.3505094900	        0.1933763200	       -0.6340235100	       -1.6476986300	        0.0521729400	        0.0846321700	        0.0087669400	        0.0433279500	        0.0301892800	       -0.0225150200	       -1.7518883500	       -0.0810007400	       -0.3402355500	       -0.0178654900	       -0.0428032800	        0.0009482000	
